# xmcd
#
# Track frame offsets:
#	150
#	20186
#	35288
#	50828
#	66162
#	76449
#	90385
#	101894
#	109999
#	124573
#	138280
#	149118
#	159950
#	172054
#	188146
#	204065
#	215622
#
# Disc length: 3206 seconds
#
# Revision: 4
# Processed by: cddbd v1.5.2PL0 Copyright (c) Steve Scherf et al.
# Submitted via: EZCDAudioConverter 2.1.7.1
#
DISCID=f80c8411
DTITLE=V/A - Flower Power 1/2
DYEAR=2007
DGENRE=
TTITLE0=Moody Blues - Nights In White Satin
TTITLE1=Brewer and Shipley - One Toke Over The Line
TTITLE2=Delaney and Bonnie - Only You Know And I Know
TTITLE3=Joan Baez - The Night They Drove Old Dixie Down
TTITLE4=Cannibal and The Headhunters - Land Of 1000 Dances
TTITLE5=Shocking Blue - Venus
TTITLE6=Richie Havens - Here Comes The Sun
TTITLE7=Marianne Faithfull - Summer Nights
TTITLE8=Janis Ian - Society's Child (Baby I've Been Thinking)
TTITLE9=Danny O'Keefe - Good Time Charlie's Got The Blues
TTITLE10=New Seekers - I'd Like To Teach The World To Sing (In Perfect Harmony
TTITLE10=)
TTITLE11=Beau Brummels - Just A Little
TTITLE12=Bubble Puppy - Hot Smoke And Sasafrass
TTITLE13=Lobo - Don't Expect Me To Be Your Friend
TTITLE14=Alice Cooper - School's Out
TTITLE15=Harpers Bizarre - Come To The Sunshine
TTITLE16=Aretha Franklin - Bridge Over Troubled Water
EXTD=
EXTT0=
EXTT1=
EXTT2=
EXTT3=
EXTT4=
EXTT5=
EXTT6=
EXTT7=
EXTT8=
EXTT9=
EXTT10=
EXTT11=
EXTT12=
EXTT13=
EXTT14=
EXTT15=
EXTT16=
PLAYORDER=
